<svg width="745" height="278" viewBox="0 0 745 278" fill="none" xmlns="http://www.w3.org/2000/svg">
<path d="M85.0743 3.39639L0.691433 76.4018C0.252331 76.7817 0 77.3337 0 77.9143V120.343C0 121.404 0.421426 122.421 1.17157 123.172L3.72224 125.722C4.44792 126.448 5.60508 126.507 6.40041 125.858L85.2081 61.5922C87.4156 59.7921 90.5844 59.7921 92.7919 61.5922L171.6 125.858C172.395 126.507 173.552 126.448 174.278 125.722L176.828 123.172C177.579 122.421 178 121.404 178 120.343V77.9143C178 77.3337 177.748 76.7817 177.309 76.4018L92.9257 3.39639C90.6718 1.44639 87.3282 1.44639 85.0743 3.39639Z" fill="#38B2FD"/>
<path d="M85.0742 101.397C87.3281 99.4466 90.6719 99.4466 92.9258 101.397L175.926 173.205C177.243 174.345 178 176.001 178 177.742V201.222C178 202.984 177.225 204.657 175.882 205.797L92.8818 276.207C90.6428 278.106 87.3572 278.106 85.1182 276.207L2.11816 205.797C0.774602 204.657 0.000176763 202.984 0 201.222V177.742C8.88188e-05 176.001 0.757145 174.345 2.07422 173.205L85.0742 101.397ZM91.5254 158.055C90.0548 156.858 87.9452 156.858 86.4746 158.055L49.8115 187.898C47.845 189.498 47.845 192.501 49.8115 194.102L86.4746 223.944C87.9452 225.141 90.0548 225.141 91.5254 223.944L128.188 194.102C130.155 192.501 130.155 189.498 128.188 187.898L91.5254 158.055Z" fill="#0157C8"/>
<path d="M743.333 111.5V121.109H709.74V111.5H743.333ZM718.749 96.7656H730.721V154.942C730.721 157.265 731.068 159.013 731.762 160.187C732.456 161.335 733.35 162.123 734.444 162.55C735.565 162.95 736.78 163.15 738.088 163.15C739.049 163.15 739.89 163.084 740.61 162.95C741.331 162.817 741.892 162.71 742.292 162.63L744.454 172.52C743.76 172.786 742.772 173.053 741.491 173.32C740.21 173.614 738.608 173.774 736.687 173.801C733.537 173.854 730.601 173.294 727.878 172.119C725.155 170.945 722.953 169.13 721.271 166.674C719.59 164.218 718.749 161.135 718.749 157.425V96.7656Z" fill="#0157C8"/>
<path d="M704.207 126.515L693.356 128.437C692.903 127.048 692.182 125.727 691.194 124.473C690.233 123.218 688.925 122.19 687.271 121.39C685.616 120.589 683.547 120.188 681.064 120.188C677.674 120.188 674.845 120.949 672.576 122.471C670.307 123.965 669.173 125.901 669.173 128.276C669.173 130.332 669.934 131.987 671.455 133.241C672.977 134.496 675.432 135.523 678.822 136.324L688.592 138.566C694.251 139.874 698.468 141.89 701.244 144.612C704.02 147.335 705.408 150.872 705.408 155.223C705.408 158.906 704.34 162.189 702.205 165.072C700.096 167.928 697.147 170.171 693.356 171.799C689.593 173.427 685.229 174.241 680.264 174.241C673.377 174.241 667.758 172.773 663.407 169.837C659.056 166.874 656.387 162.67 655.399 157.225L666.971 155.463C667.691 158.479 669.173 160.761 671.415 162.31C673.657 163.831 676.58 164.592 680.184 164.592C684.107 164.592 687.244 163.778 689.593 162.149C691.942 160.494 693.116 158.479 693.116 156.104C693.116 154.182 692.396 152.567 690.954 151.259C689.539 149.951 687.364 148.963 684.428 148.296L674.018 146.014C668.279 144.706 664.035 142.624 661.285 139.768C658.562 136.911 657.201 133.295 657.201 128.917C657.201 125.287 658.215 122.11 660.244 119.388C662.273 116.665 665.076 114.543 668.652 113.021C672.229 111.473 676.326 110.699 680.944 110.699C687.591 110.699 692.823 112.141 696.64 115.023C700.457 117.88 702.979 121.71 704.207 126.515Z" fill="#0157C8"/>
<path d="M622.399 174.241C616.34 174.241 611.122 172.947 606.744 170.357C602.393 167.742 599.03 164.071 596.654 159.347C594.305 154.595 593.131 149.03 593.131 142.65C593.131 136.351 594.305 130.799 596.654 125.994C599.03 121.189 602.34 117.439 606.584 114.743C610.855 112.047 615.846 110.699 621.559 110.699C625.029 110.699 628.392 111.273 631.648 112.421C634.905 113.569 637.828 115.37 640.417 117.826C643.006 120.282 645.048 123.472 646.543 127.396C648.038 131.293 648.785 136.031 648.785 141.609V145.854H599.897V136.885H637.054C637.054 133.735 636.413 130.946 635.132 128.517C633.851 126.061 632.049 124.126 629.727 122.711C627.431 121.296 624.735 120.589 621.639 120.589C618.275 120.589 615.339 121.416 612.83 123.071C610.348 124.7 608.426 126.835 607.064 129.478C605.73 132.093 605.062 134.936 605.062 138.006V145.013C605.062 149.123 605.783 152.62 607.225 155.503C608.693 158.386 610.735 160.588 613.351 162.109C615.966 163.604 619.023 164.352 622.52 164.352C624.788 164.352 626.857 164.031 628.726 163.391C630.594 162.723 632.209 161.736 633.57 160.428C634.932 159.12 635.973 157.505 636.693 155.583L648.024 157.625C647.117 160.962 645.489 163.884 643.14 166.394C640.817 168.876 637.895 170.811 634.371 172.199C630.874 173.561 626.884 174.241 622.399 174.241Z" fill="#0157C8"/>
<path d="M590.681 111.5L568.379 173H555.567L533.225 111.5H546.078L561.653 158.826H562.293L577.829 111.5H590.681Z" fill="#0157C8"/>
<path d="M488.804 136.484V173H476.833V111.5H488.324V121.51H489.084C490.499 118.253 492.715 115.637 495.731 113.662C498.774 111.687 502.604 110.699 507.222 110.699C511.413 110.699 515.083 111.58 518.233 113.342C521.383 115.077 523.825 117.666 525.56 121.109C527.295 124.553 528.163 128.81 528.163 133.882V173H516.191V135.323C516.191 130.866 515.03 127.382 512.708 124.873C510.385 122.337 507.195 121.069 503.138 121.069C500.362 121.069 497.893 121.67 495.731 122.871C493.596 124.072 491.901 125.834 490.646 128.156C489.418 130.452 488.804 133.228 488.804 136.484Z" fill="#0157C8"/>
<path d="M463.722 91V173H451.35V91H463.722Z" fill="#0157C8"/>
<path d="M414.667 174.241C408.607 174.241 403.389 172.947 399.011 170.357C394.66 167.742 391.297 164.071 388.921 159.347C386.572 154.595 385.398 149.03 385.398 142.65C385.398 136.351 386.572 130.799 388.921 125.994C391.297 121.189 394.607 117.439 398.851 114.743C403.122 112.047 408.113 110.699 413.826 110.699C417.296 110.699 420.659 111.273 423.916 112.421C427.172 113.569 430.095 115.37 432.684 117.826C435.273 120.282 437.315 123.472 438.81 127.396C440.305 131.293 441.052 136.031 441.052 141.609V145.854H392.165V136.885H429.321C429.321 133.735 428.68 130.946 427.399 128.517C426.118 126.061 424.316 124.126 421.994 122.711C419.698 121.296 417.002 120.589 413.906 120.589C410.542 120.589 407.606 121.416 405.097 123.071C402.615 124.7 400.693 126.835 399.332 129.478C397.997 132.093 397.33 134.936 397.33 138.006V145.013C397.33 149.123 398.05 152.62 399.492 155.503C400.96 158.386 403.002 160.588 405.618 162.109C408.234 163.604 411.29 164.352 414.787 164.352C417.056 164.352 419.124 164.031 420.993 163.391C422.861 162.723 424.476 161.736 425.837 160.428C427.199 159.12 428.24 157.505 428.96 155.583L440.292 157.625C439.384 160.962 437.756 163.884 435.407 166.394C433.084 168.876 430.162 170.811 426.638 172.199C423.141 173.561 419.151 174.241 414.667 174.241Z" fill="#0157C8"/>
<path d="M382.177 111.5V121.109H347.423V111.5H382.177ZM356.953 173V104.373C356.953 100.529 357.793 97.3395 359.475 94.8037C361.157 92.2412 363.386 90.3327 366.162 89.0781C368.938 87.7969 371.954 87.1562 375.21 87.1562C377.613 87.1562 379.668 87.3564 381.376 87.7568C383.085 88.1305 384.353 88.4775 385.18 88.7979L382.377 98.4873C381.817 98.3272 381.096 98.1403 380.215 97.9268C379.334 97.6865 378.267 97.5664 377.012 97.5664C374.103 97.5664 372.021 98.2871 370.766 99.7285C369.538 101.17 368.924 103.252 368.924 105.975V173H356.953Z" fill="#0157C8"/>
<path d="M310.56 174.361C306.663 174.361 303.139 173.641 299.99 172.199C296.84 170.731 294.344 168.609 292.502 165.833C290.687 163.057 289.78 159.654 289.78 155.623C289.78 152.153 290.447 149.297 291.782 147.055C293.116 144.812 294.918 143.037 297.187 141.729C299.456 140.422 301.992 139.434 304.794 138.767C307.597 138.099 310.453 137.592 313.363 137.245C317.046 136.818 320.036 136.471 322.332 136.204C324.627 135.91 326.295 135.443 327.336 134.803C328.377 134.162 328.898 133.121 328.898 131.68V131.399C328.898 127.903 327.91 125.193 325.935 123.271C323.986 121.35 321.077 120.389 317.207 120.389C313.176 120.389 310 121.283 307.677 123.071C305.382 124.833 303.793 126.795 302.913 128.957L291.662 126.395C292.996 122.658 294.945 119.641 297.507 117.346C300.097 115.023 303.073 113.342 306.436 112.301C309.799 111.233 313.336 110.699 317.046 110.699C319.502 110.699 322.105 110.993 324.854 111.58C327.63 112.141 330.219 113.182 332.622 114.703C335.051 116.225 337.039 118.4 338.587 121.229C340.136 124.032 340.91 127.676 340.91 132.16V173H329.218V164.592H328.738C327.964 166.14 326.803 167.661 325.254 169.156C323.706 170.651 321.718 171.892 319.289 172.88C316.86 173.868 313.95 174.361 310.56 174.361ZM313.163 164.752C316.472 164.752 319.302 164.098 321.651 162.79C324.027 161.482 325.828 159.774 327.056 157.665C328.311 155.53 328.938 153.247 328.938 150.818V142.891C328.511 143.318 327.683 143.718 326.456 144.092C325.254 144.439 323.88 144.746 322.332 145.013C320.783 145.253 319.275 145.48 317.807 145.693C316.339 145.88 315.111 146.04 314.124 146.174C311.801 146.467 309.679 146.961 307.757 147.655C305.862 148.349 304.341 149.35 303.193 150.658C302.072 151.939 301.511 153.648 301.511 155.783C301.511 158.746 302.606 160.988 304.794 162.51C306.983 164.005 309.773 164.752 313.163 164.752Z" fill="#0157C8"/>
<path d="M269.732 112.541C269.305 108.751 267.544 105.814 264.447 103.732C261.351 101.624 257.454 100.569 252.756 100.569C249.393 100.569 246.483 101.103 244.027 102.171C241.572 103.212 239.663 104.653 238.302 106.495C236.967 108.31 236.3 110.379 236.3 112.701C236.3 114.65 236.754 116.331 237.661 117.746C238.595 119.161 239.81 120.349 241.305 121.31C242.826 122.244 244.454 123.031 246.189 123.672C247.924 124.286 249.593 124.793 251.194 125.193L259.202 127.275C261.818 127.916 264.501 128.784 267.25 129.878C269.999 130.972 272.549 132.414 274.897 134.202C277.246 135.991 279.142 138.206 280.583 140.849C282.051 143.491 282.785 146.654 282.785 150.338C282.785 154.982 281.584 159.106 279.182 162.71C276.806 166.313 273.349 169.156 268.812 171.238C264.3 173.32 258.842 174.361 252.436 174.361C246.296 174.361 240.984 173.387 236.5 171.438C232.016 169.49 228.506 166.727 225.97 163.15C223.434 159.547 222.033 155.276 221.766 150.338H234.178C234.418 153.301 235.379 155.77 237.061 157.745C238.769 159.694 240.944 161.148 243.587 162.109C246.256 163.044 249.179 163.511 252.355 163.511C255.852 163.511 258.962 162.964 261.685 161.869C264.434 160.748 266.596 159.2 268.171 157.225C269.746 155.223 270.533 152.887 270.533 150.218C270.533 147.789 269.839 145.8 268.451 144.252C267.09 142.704 265.235 141.423 262.886 140.408C260.563 139.394 257.934 138.5 254.998 137.726L245.309 135.083C238.742 133.295 233.537 130.665 229.693 127.195C225.876 123.725 223.968 119.134 223.968 113.422C223.968 108.697 225.249 104.573 227.812 101.05C230.374 97.5264 233.844 94.7904 238.222 92.8418C242.599 90.8665 247.537 89.8789 253.036 89.8789C258.588 89.8789 263.486 90.8532 267.73 92.8018C272.001 94.7503 275.365 97.4329 277.82 100.85C280.276 104.24 281.557 108.137 281.664 112.541H269.732Z" fill="#0157C8"/>
</svg>
